<?xml version="1.0" encoding="UTF-8"?>
<svg version="1.1" xmlns="http://www.w3.org/2000/svg" width="1024" height="1024">
<path d="M0 0 C337.92 0 675.84 0 1024 0 C1024 337.92 1024 675.84 1024 1024 C686.08 1024 348.16 1024 0 1024 C0 686.08 0 348.16 0 0 Z " fill="#3562E2" transform="translate(0,0)"/>
<path d="M0 0 C1.63086548 0.01135986 1.63086548 0.01135986 3.29467773 0.02294922 C30.75052227 0.57508877 54.87099495 11.09031559 75 29.4375 C75.65355469 30.00855469 76.30710937 30.57960938 76.98046875 31.16796875 C97.55450926 50.17818671 107.42523991 77.43788921 111 104.4375 C111.5983667 104.64318604 112.1967334 104.84887207 112.81323242 105.06079102 C145.62914223 116.428023 169.56152179 133.49300302 185.34838867 165.20532227 C194.67286305 185.25845598 195.55601479 206.5305725 191.75390625 227.96484375 C191.63031738 228.70250977 191.50672852 229.44017578 191.37939453 230.20019531 C191.12180836 231.71919125 190.84066523 233.23434245 190.53857422 234.74511719 C189.5285846 240.75398083 190.67179352 243.82705459 194 248.8125 C202.61954221 262.93068663 206.95551769 278.28210194 210 294.4375 C210.1743457 295.35966309 210.34869141 296.28182617 210.52832031 297.23193359 C215.80776816 333.11141094 206.95038023 371.55290613 185.5625 400.875 C180.69237974 407.02492259 175.40257984 412.75766166 170 418.4375 C169.30648437 419.20707031 168.61296875 419.97664063 167.8984375 420.76953125 C160.76857901 428.40866534 151.39361095 435.74069453 142 440.4375 C141.33382733 442.95987197 140.77094721 445.44721974 140.25 448 C133.55780748 478.27649033 116.07544501 504.37785544 89.90673828 521.24951172 C63.11748667 537.94048462 29.88558426 545.99888466 -1.6015625 540.82421875 C-14.93177369 537.58443509 -28.0023988 530.84044834 -38 521.4375 C-38.63164063 520.84710937 -39.26328125 520.25671875 -39.9140625 519.6484375 C-53.42057689 505.6659226 -55.45592219 487.55219796 -55.38768005 469.10534668 C-55.39185832 467.25975328 -55.39733853 465.41416245 -55.40399987 463.56857634 C-55.41840823 458.52230073 -55.4142242 453.4761891 -55.40683305 448.4299047 C-55.40209233 442.97787696 -55.41461914 437.52588423 -55.42485046 432.0738678 C-55.44202531 421.4033321 -55.4428813 410.73285532 -55.43763756 400.06230938 C-55.43359265 391.38849295 -55.43504323 382.7146939 -55.44038582 374.0408783 C-55.44113424 372.80538238 -55.44188266 371.56988645 -55.44265376 370.29695126 C-55.44418527 367.78689944 -55.44572362 365.27684763 -55.44726873 362.76679581 C-55.46059774 339.91205837 -55.45627904 317.05734778 -55.44505819 294.20261162 C-55.43495461 273.35590971 -55.44331604 252.50928834 -55.46655273 231.66259766 C-55.49264038 208.220473 -55.50541995 184.77838951 -55.49836498 161.33624887 C-55.49487285 148.93149216 -55.4971047 136.52680158 -55.51461601 124.12205505 C-55.52933615 113.56381888 -55.52997565 103.00569544 -55.5125451 92.44746149 C-55.50403182 87.0626623 -55.50189384 81.67806452 -55.51719666 76.29327583 C-55.53104329 71.35976736 -55.52628069 66.42663284 -55.50695742 61.493146 C-55.50319711 59.71268494 -55.50612024 57.93219393 -55.51656907 56.15175956 C-55.60456755 40.0033583 -52.63764505 27.63116923 -41.5 15.375 C-29.92286326 4.30699165 -15.74692061 -0.15579992 0 0 Z " fill="#FDFEFE" transform="translate(578,242.5625)"/>
<path d="M0 0 C9.44276776 8.17327179 17.03291455 17.05095114 18.49885333 29.90185015 C18.87218908 35.40968487 18.81120762 40.92367559 18.78137207 46.44102478 C18.78598687 48.30653114 18.79234367 50.17203387 18.80028105 52.03752905 C18.816918 57.13893019 18.80875362 62.24003049 18.79633617 67.34143245 C18.78726485 72.85278945 18.80126578 78.36409568 18.81225586 83.8754425 C18.83002377 94.66264002 18.82620866 105.44972608 18.8146053 116.23692792 C18.805564 125.00608606 18.80435 133.775213 18.80870056 142.54437447 C18.80931349 143.79345847 18.80992643 145.04254247 18.81055793 146.32947751 C18.81183686 148.8671486 18.81313372 151.40481969 18.8144483 153.94249076 C18.82552429 177.04975607 18.81404645 200.15696881 18.79307791 223.26422135 C18.77409892 244.33918464 18.77579318 265.41405123 18.79492188 286.48901367 C18.81636112 310.18861248 18.82474826 333.88816873 18.81247282 357.5877791 C18.81119866 360.11631015 18.80994117 362.64484121 18.80870056 365.17337227 C18.80777491 367.03938536 18.80777491 367.03938536 18.80683056 368.9430957 C18.80338065 377.69858254 18.80919832 386.45403501 18.81861877 395.20951653 C18.82985186 405.88411048 18.82677118 416.55858682 18.8054958 427.23316734 C18.79500278 432.67681835 18.79083382 438.12027344 18.80409241 443.56392288 C18.81605832 448.55238451 18.8093846 453.54046962 18.7881822 458.52889735 C18.78373388 460.32821593 18.78594232 462.12756668 18.79568535 463.92686438 C18.8849491 481.7894563 15.23039413 496.27333718 2.70703125 509.578125 C-15.0801739 526.73721055 -38.40383043 530.58898483 -62.13671875 530.26953125 C-96.78229413 529.03237337 -126.62347327 513.35352038 -150.27734375 488.71484375 C-164.06235401 473.87636928 -173.74463494 454.00769882 -176.7890625 433.98828125 C-177.94959916 428.61834044 -179.64141759 426.66763256 -184.2265625 423.67578125 C-186.39275279 422.42495589 -188.55941841 421.17495335 -190.7265625 419.92578125 C-220.65254009 398.08108031 -238.54639978 366.89875727 -245.7265625 330.92578125 C-245.95214844 329.87777344 -246.17773438 328.82976562 -246.41015625 327.75 C-252.47066282 295.52482367 -244.29830086 262.5677092 -227.7265625 234.92578125 C-227.32767822 234.37728516 -226.92879395 233.82878906 -226.51782227 233.26367188 C-224.88503074 230.87358939 -223.66441059 228.8435137 -223.86425781 225.89257812 C-224.41912463 223.67106714 -225.11732618 221.5721697 -225.9140625 219.42578125 C-233.87436545 196.30988852 -229.97252134 171.69231582 -219.7265625 149.92578125 C-215.79905311 142.32415016 -211.21342823 135.47887198 -205.7265625 128.92578125 C-204.87191406 127.85263672 -204.87191406 127.85263672 -204 126.7578125 C-189.93814184 109.85366386 -168.43113392 97.20841395 -146.7265625 93.92578125 C-146.71238281 93.27996094 -146.69820313 92.63414062 -146.68359375 91.96875 C-145.20711833 62.79838419 -130.94657186 38.17379616 -110.7265625 17.92578125 C-110.00210938 17.18972656 -109.27765625 16.45367187 -108.53125 15.6953125 C-82.12432412 -9.45653135 -31.31861455 -23.82547898 0 0 Z " fill="#FDFDFE" transform="translate(481.7265625,254.07421875)"/>
<path d="M0 0 C20.06973381 15.24008734 20.06973381 15.24008734 21.79492188 26.01806641 C21.97831533 31.29062835 20.03197731 33.78582961 16.54492188 37.58056641 C12.51136216 39.94809059 9.23310165 40.29084808 4.66992188 39.26806641 C-0.3630009 36.4188498 -3.87982396 31.52693222 -7.60742188 27.20947266 C-17.54231826 16.01300213 -32.04739726 10.04791726 -46.83398438 9.02587891 C-65.06390636 8.66568286 -81.18133461 13.61524261 -94.87548828 25.86767578 C-108.02137276 38.52373375 -113.1011262 55.49350657 -113.64257812 73.26806641 C-113.49468289 89.76660136 -108.05131375 104.01591998 -96.60351562 116.05322266 C-88.22996466 124.21096045 -78.29594435 128.65935893 -67.26757812 132.33056641 C-64.15284577 133.45205167 -62.27031443 134.31532142 -59.64257812 136.39306641 C-57.66785039 140.71866049 -57.46427455 144.60317645 -58.33007812 149.26806641 C-60.01374294 152.64229631 -62.4024509 154.67541568 -65.58007812 156.70556641 C-77.20704519 159.08380967 -89.9935627 152.10194406 -99.58007812 146.01806641 C-118.07865997 133.7535711 -133.16621541 114.41689889 -137.67382812 92.27587891 C-138.72499382 85.61001903 -138.72507714 78.87720293 -138.76757812 72.14306641 C-138.77781006 70.89267578 -138.78804199 69.64228516 -138.79858398 68.35400391 C-138.57352058 44.38081629 -129.31879105 24.64949774 -113.08007812 7.45556641 C-100.07261233 -4.98476656 -83.97666571 -12.47013084 -66.33007812 -15.73193359 C-65.40195312 -15.91626953 -64.47382812 -16.10060547 -63.51757812 -16.29052734 C-40.74599853 -19.44394462 -18.52184317 -13.37748153 0 0 Z " fill="#3360E2" transform="translate(701.330078125,540.73193359375)"/>
<path d="M0 0 C14.44902271 4.80632772 27.71346047 12.7435409 37 25 C37.46792969 25.59941406 37.93585938 26.19882812 38.41796875 26.81640625 C48.16378466 40.70044553 50.00773487 60.01225367 47.38671875 76.39453125 C43.86685022 94.55238474 34.0577059 112.94411684 19 124 C0.43972857 136.24618393 -19.00745667 139.44784955 -40.75 135.03515625 C-55.51809449 131.67361214 -68.06092978 123.32097303 -78 112 C-79.84467846 108.31064308 -79.35009552 104.03564658 -79 100 C-77.70506863 96.79674873 -76.44224846 95.39021923 -73.875 93.125 C-69.65401918 91.47331185 -66.30174217 91.5757257 -62 93 C-59.7992091 94.53592481 -57.95430568 96.23156883 -56.0234375 98.09375 C-45.79380017 107.73093729 -33.55467848 111.40715702 -19.765625 111.27734375 C-8.29544402 110.43254826 2.89610422 105.6941555 10.8125 97.25 C20.91076768 84.68062682 23.64433427 68.74598651 22 53 C20.41573577 44.80965286 16.5323201 38.21439587 10 33 C5.52580593 30.27331076 0.78762744 28.09063349 -3.9765625 25.92626953 C-6.12154235 24.94436152 -8.25268809 23.94018624 -10.375 22.91015625 C-11.02210938 22.59828369 -11.66921875 22.28641113 -12.3359375 21.96508789 C-15.02145115 20.40760029 -15.9479851 18.89304098 -17 16 C-17.54768238 11.07085861 -17.54281153 9.01075251 -15.1875 4.625 C-10.67844148 -0.78587023 -6.64051707 -1.05983315 0 0 Z " fill="#3360E2" transform="translate(403,347)"/>
<path d="M0 0 C3.68986311 1.60428831 6.08031042 3.44857428 8 7 C9.16495345 11.73747735 9.36895215 13.94848637 7.75 18.5625 C5.06586984 22.66764024 1.00639889 24.72211451 -3.12109375 27.1953125 C-16.77471612 35.75429966 -24.9022876 49.19237184 -28.60083008 64.71044922 C-31.65894367 82.25111546 -29.29379054 100.7979704 -18.9921875 115.54296875 C-9.63398591 127.08475072 3.38659237 134.63705729 18.1953125 136.375 C27.36001858 137.5231511 27.36001858 137.5231511 31.1875 140.375 C31.785625 141.24125 32.38375 142.1075 33 143 C33.45375 143.598125 33.9075 144.19625 34.375 144.8125 C35.382838 148.33993299 35.03034191 151.54336907 34 155 C32.15428079 158.24960601 29.88252721 160.4890632 26.625 162.375 C13.24947064 165.55964985 -4.36706714 158.11581206 -15.7421875 151.375 C-35.69144515 137.95120046 -48.90359269 119.46650825 -54 96 C-58.24445835 72.08190361 -53.80874505 47.78381374 -40.20751953 27.64916992 C-32.42639656 16.66513269 -15.36630297 -4.19378844 0 0 Z " fill="#3360E2" transform="translate(635,317)"/>
<path d="M0 0 C2.48869147 2.2895344 4.90364615 4.64929277 7.32421875 7.01074219 C8.3296875 7.90599609 8.3296875 7.90599609 9.35546875 8.81933594 C15.93297831 14.81383897 23.80269978 25.37833732 24.63671875 34.38574219 C24.23109441 39.09098451 23.06353175 42.42954856 19.51953125 45.65136719 C16.96439446 47.23355154 15.43636795 47.47351914 12.44921875 47.51074219 C11.62679687 47.54167969 10.804375 47.57261719 9.95703125 47.60449219 C6.22706137 46.76331204 3.85375324 44.76378393 1.32421875 42.01074219 C-0.6953125 38.77636719 -0.6953125 38.77636719 -2.48828125 35.26074219 C-9.48183212 22.40677699 -19.15179438 15.81182228 -32.71484375 10.91308594 C-46.28172068 6.98198278 -59.67560376 8.2147387 -72.35546875 14.29589844 C-85.53250389 21.66436513 -94.76823962 32.42811216 -100.59765625 46.18652344 C-102.18451858 49.7439566 -103.25202607 51.6929258 -106.42578125 54.07324219 C-110.51581942 55.25306089 -113.6067399 55.25242903 -117.67578125 54.01074219 C-121.08147716 51.86367302 -123.48538907 49.90657115 -124.67578125 46.01074219 C-125.94323125 33.75872551 -118.66560119 23.16618407 -111.234375 13.99902344 C-97.86077563 -1.50710274 -78.91329243 -15.10687946 -58.0078125 -16.86425781 C-37.79964982 -17.94744241 -15.51905906 -13.80429883 0 0 Z " fill="#3360E2" transform="translate(430.67578125,547.9892578125)"/>
<path d="M0 0 C3.8772971 2.12871213 6.71352639 4.20508893 9 8 C9.29296875 10.68212891 9.29296875 10.68212891 9.1875 13.7265625 C9.16429687 14.84160156 9.14109375 15.95664062 9.1171875 17.10546875 C9.03984201 19.4284115 8.96173288 21.75132897 8.8828125 24.07421875 C8.61175976 37.19015963 12.29234774 48.53581043 21.21484375 58.37109375 C26.18495095 62.90618063 31.74831452 65.82187033 38.25 67.4375 C42.71179084 68.6479543 45.23245291 70.3215658 48.00390625 74.03515625 C49.81626924 77.61013108 49.57603495 80.03175923 49 84 C47.50282018 87.20824247 45.72481464 89.72932114 43 92 C36.15355822 94.28214726 31.37828508 93.43774005 25.05566406 90.44140625 C18.61568596 87.19914895 12.39360423 83.8376845 7 79 C6.2884375 78.37996094 5.576875 77.75992188 4.84375 77.12109375 C-7.20951266 65.91403618 -16.24355097 50.08322309 -17.13916016 33.40917969 C-17.24268271 30.31370237 -17.28420792 27.22204 -17.3125 24.125 C-17.34150391 23.07441406 -17.37050781 22.02382813 -17.40039062 20.94140625 C-17.45581817 14.12808163 -16.63733208 9.79952393 -13 4 C-9.10505009 0.34110766 -5.27474098 -0.51713147 0 0 Z " fill="#325FE2" transform="translate(396,644)"/>
<path d="M0 0 C1.98 0 3.96 0 6 0 C5.67 0.66 5.34 1.32 5 2 C2.93359375 2.6328125 2.93359375 2.6328125 0.4375 3.125 C-0.80193359 3.37636719 -0.80193359 3.37636719 -2.06640625 3.6328125 C-2.70449219 3.75398437 -3.34257812 3.87515625 -4 4 C-2.68 3.34 -1.36 2.68 0 2 C0 1.34 0 0.68 0 0 Z " fill="#2A57E1" transform="translate(408,246)"/>
</svg>
