<svg width="1440" height="800" viewBox="0 0 1440 800" fill="none" xmlns="http://www.w3.org/2000/svg">
  <g opacity="0.3">
    <circle cx="277" cy="325" r="5" fill="#0072F5" />
    <circle cx="277" cy="354" r="5" fill="#0072F5" />
    <circle cx="277" cy="383" r="5" fill="#0072F5" />
    <circle cx="277" cy="412" r="5" fill="#0072F5" />
    <circle cx="277" cy="441" r="5" fill="#0072F5" />
    <circle cx="277" cy="470" r="5" fill="#0072F5" />
    <circle cx="306" cy="325" r="5" fill="#0072F5" />
    <circle cx="306" cy="354" r="5" fill="#0072F5" />
    <circle cx="306" cy="383" r="5" fill="#0072F5" />
    <circle cx="306" cy="412" r="5" fill="#0072F5" />
    <circle cx="306" cy="441" r="5" fill="#0072F5" />
    <circle cx="306" cy="470" r="5" fill="#0072F5" />
    <circle cx="335" cy="325" r="5" fill="#0072F5" />
    <circle cx="335" cy="354" r="5" fill="#0072F5" />
    <circle cx="335" cy="383" r="5" fill="#0072F5" />
    <circle cx="335" cy="412" r="5" fill="#0072F5" />
    <circle cx="335" cy="441" r="5" fill="#0072F5" />
    <circle cx="335" cy="470" r="5" fill="#0072F5" />
    <circle cx="364" cy="325" r="5" fill="#0072F5" />
    <circle cx="364" cy="354" r="5" fill="#0072F5" />
    <circle cx="364" cy="383" r="5" fill="#0072F5" />
    <circle cx="364" cy="412" r="5" fill="#0072F5" />
    <circle cx="364" cy="441" r="5" fill="#0072F5" />
    <circle cx="364" cy="470" r="5" fill="#0072F5" />
    <circle cx="393" cy="325" r="5" fill="#0072F5" />
    <circle cx="393" cy="354" r="5" fill="#0072F5" />
    <circle cx="393" cy="383" r="5" fill="#0072F5" />
    <circle cx="393" cy="412" r="5" fill="#0072F5" />
    <circle cx="393" cy="441" r="5" fill="#0072F5" />
    <circle cx="393" cy="470" r="5" fill="#0072F5" />
    <circle cx="422" cy="325" r="5" fill="#0072F5" />
    <circle cx="422" cy="354" r="5" fill="#0072F5" />
    <circle cx="422" cy="383" r="5" fill="#0072F5" />
    <circle cx="422" cy="412" r="5" fill="#0072F5" />
    <circle cx="422" cy="441" r="5" fill="#0072F5" />
    <circle cx="422" cy="470" r="5" fill="#0072F5" />
  </g>
  <g opacity="0.3">
    <circle cx="877" cy="125" r="5" fill="#8700F5" />
    <circle cx="877" cy="154" r="5" fill="#8700F5" />
    <circle cx="877" cy="183" r="5" fill="#8700F5" />
    <circle cx="877" cy="212" r="5" fill="#8700F5" />
    <circle cx="877" cy="241" r="5" fill="#8700F5" />
    <circle cx="877" cy="270" r="5" fill="#8700F5" />
    <circle cx="906" cy="125" r="5" fill="#8700F5" />
    <circle cx="906" cy="154" r="5" fill="#8700F5" />
    <circle cx="906" cy="183" r="5" fill="#8700F5" />
    <circle cx="906" cy="212" r="5" fill="#8700F5" />
    <circle cx="906" cy="241" r="5" fill="#8700F5" />
    <circle cx="906" cy="270" r="5" fill="#8700F5" />
    <circle cx="935" cy="125" r="5" fill="#8700F5" />
    <circle cx="935" cy="154" r="5" fill="#8700F5" />
    <circle cx="935" cy="183" r="5" fill="#8700F5" />
    <circle cx="935" cy="212" r="5" fill="#8700F5" />
    <circle cx="935" cy="241" r="5" fill="#8700F5" />
    <circle cx="935" cy="270" r="5" fill="#8700F5" />
    <circle cx="964" cy="125" r="5" fill="#8700F5" />
    <circle cx="964" cy="154" r="5" fill="#8700F5" />
    <circle cx="964" cy="183" r="5" fill="#8700F5" />
    <circle cx="964" cy="212" r="5" fill="#8700F5" />
    <circle cx="964" cy="241" r="5" fill="#8700F5" />
    <circle cx="964" cy="270" r="5" fill="#8700F5" />
    <circle cx="993" cy="125" r="5" fill="#8700F5" />
    <circle cx="993" cy="154" r="5" fill="#8700F5" />
    <circle cx="993" cy="183" r="5" fill="#8700F5" />
    <circle cx="993" cy="212" r="5" fill="#8700F5" />
    <circle cx="993" cy="241" r="5" fill="#8700F5" />
    <circle cx="993" cy="270" r="5" fill="#8700F5" />
    <circle cx="1022" cy="125" r="5" fill="#8700F5" />
    <circle cx="1022" cy="154" r="5" fill="#8700F5" />
    <circle cx="1022" cy="183" r="5" fill="#8700F5" />
    <circle cx="1022" cy="212" r="5" fill="#8700F5" />
    <circle cx="1022" cy="241" r="5" fill="#8700F5" />
    <circle cx="1022" cy="270" r="5" fill="#8700F5" />
  </g>
  <g opacity="0.3">
    <circle cx="1177" cy="525" r="5" fill="#03B450" />
    <circle cx="1177" cy="554" r="5" fill="#03B450" />
    <circle cx="1177" cy="583" r="5" fill="#03B450" />
    <circle cx="1177" cy="612" r="5" fill="#03B450" />
    <circle cx="1177" cy="641" r="5" fill="#03B450" />
    <circle cx="1177" cy="670" r="5" fill="#03B450" />
    <circle cx="1206" cy="525" r="5" fill="#03B450" />
    <circle cx="1206" cy="554" r="5" fill="#03B450" />
    <circle cx="1206" cy="583" r="5" fill="#03B450" />
    <circle cx="1206" cy="612" r="5" fill="#03B450" />
    <circle cx="1206" cy="641" r="5" fill="#03B450" />
    <circle cx="1206" cy="670" r="5" fill="#03B450" />
    <circle cx="1235" cy="525" r="5" fill="#03B450" />
    <circle cx="1235" cy="554" r="5" fill="#03B450" />
    <circle cx="1235" cy="583" r="5" fill="#03B450" />
    <circle cx="1235" cy="612" r="5" fill="#03B450" />
    <circle cx="1235" cy="641" r="5" fill="#03B450" />
    <circle cx="1235" cy="670" r="5" fill="#03B450" />
    <circle cx="1264" cy="525" r="5" fill="#03B450" />
    <circle cx="1264" cy="554" r="5" fill="#03B450" />
    <circle cx="1264" cy="583" r="5" fill="#03B450" />
    <circle cx="1264" cy="612" r="5" fill="#03B450" />
    <circle cx="1264" cy="641" r="5" fill="#03B450" />
    <circle cx="1264" cy="670" r="5" fill="#03B450" />
    <circle cx="1293" cy="525" r="5" fill="#03B450" />
    <circle cx="1293" cy="554" r="5" fill="#03B450" />
    <circle cx="1293" cy="583" r="5" fill="#03B450" />
    <circle cx="1293" cy="612" r="5" fill="#03B450" />
    <circle cx="1293" cy="641" r="5" fill="#03B450" />
    <circle cx="1293" cy="670" r="5" fill="#03B450" />
    <circle cx="1322" cy="525" r="5" fill="#03B450" />
    <circle cx="1322" cy="554" r="5" fill="#03B450" />
    <circle cx="1322" cy="583" r="5" fill="#03B450" />
    <circle cx="1322" cy="612" r="5" fill="#03B450" />
    <circle cx="1322" cy="641" r="5" fill="#03B450" />
    <circle cx="1322" cy="670" r="5" fill="#03B450" />
  </g>

  <!-- Large circle patterns with very low opacity -->
  <circle cx="1400" cy="200" r="300" fill="url(#grad1)" opacity="0.05" />
  <circle cx="100" cy="600" r="250" fill="url(#grad2)" opacity="0.05" />
  <circle cx="800" cy="700" r="200" fill="url(#grad3)" opacity="0.05" />

  <!-- Gradient definitions -->
  <defs>
    <radialGradient id="grad1" cx="0.5" cy="0.5" r="0.5" gradientUnits="objectBoundingBox">
      <stop offset="0%" stop-color="#0072F5" />
      <stop offset="100%" stop-color="#0072F5" stop-opacity="0" />
    </radialGradient>
    <radialGradient id="grad2" cx="0.5" cy="0.5" r="0.5" gradientUnits="objectBoundingBox">
      <stop offset="0%" stop-color="#8700F5" />
      <stop offset="100%" stop-color="#8700F5" stop-opacity="0" />
    </radialGradient>
    <radialGradient id="grad3" cx="0.5" cy="0.5" r="0.5" gradientUnits="objectBoundingBox">
      <stop offset="0%" stop-color="#03B450" />
      <stop offset="100%" stop-color="#03B450" stop-opacity="0" />
    </radialGradient>
  </defs>
</svg>
